<svg width="18" height="18" viewBox="0 0 18 18" fill="none" xmlns="http://www.w3.org/2000/svg">
<path d="M1 9.5C0.748026 9.5 0.539016 9.31325 0.50492 9.07083L0.500141 8.98802C0.505949 8.7415 0.690601 8.5385 0.929128 8.5049L1.01435 8.5H8H8.5V8V1C8.5 0.748026 8.68675 0.539016 8.92917 0.50492L9.01198 0.500141C9.2585 0.505949 9.4615 0.690601 9.4951 0.929128L9.5 1.01435V8V8.5H10H17C17.2519 8.5 17.461 8.68673 17.4951 8.92915L17.4999 9.01192C17.4941 9.25848 17.3094 9.46149 17.0709 9.4951L16.9856 9.5H10H9.5V10V17C9.5 17.2519 9.31327 17.461 9.07085 17.4951L8.98808 17.4999C8.74152 17.4941 8.53851 17.3094 8.5049 17.0709L8.5 16.9856V10V9.5H8H1Z" fill="#C70000" stroke="#C70000"/>
</svg>
