<svg width="18" height="18" viewBox="0 0 18 18" fill="none" xmlns="http://www.w3.org/2000/svg">
<path d="M8.8834 0.00673008L9 0C9.5128 0 9.9355 0.38604 9.9933 0.88338L10 1V8H17C17.5128 8 17.9355 8.386 17.9933 8.8834L18 9C18 9.5128 17.614 9.9355 17.1166 9.9933L17 10H10V17C10 17.5128 9.614 17.9355 9.1166 17.9933L9 18C8.4872 18 8.0645 17.614 8.0067 17.1166L8 17V10H1C0.48716 10 0.0644901 9.614 0.00673008 9.1166L0 9C0 8.4872 0.38604 8.0645 0.88338 8.0067L1 8H8V1C8 0.48716 8.386 0.0644901 8.8834 0.00673008Z" fill="#212121"/>
</svg>
