<svg width="18" height="18" viewBox="0 0 18 18" fill="none" xmlns="http://www.w3.org/2000/svg">
<path d="M14.75 0C16.5449 0 18 1.45507 18 3.25V14.75C18 16.5449 16.5449 18 14.75 18H3.25C1.45507 18 0 16.5449 0 14.75V3.25C0 1.45507 1.45507 0 3.25 0H14.75ZM13.25 8H4.75C4.3703 8 4.05651 8.2822 4.00685 8.6482L4 8.75V13.25C4 13.6297 4.28215 13.9435 4.64823 13.9932L4.75 14H13.25C13.6297 14 13.9435 13.7178 13.9932 13.3518L14 13.25V8.75C14 8.3703 13.7178 8.0565 13.3518 8.0068L13.25 8ZM12.5 9.5V12.5H5.5V9.5H12.5ZM13.25 4.25H4.75C4.33579 4.25 4 4.58579 4 5C4 5.41421 4.33579 5.75 4.75 5.75H13.25C13.6642 5.75 14 5.41421 14 5C14 4.58579 13.6642 4.25 13.25 4.25Z" fill="#212121"/>
</svg>
