<svg width="18" height="18" viewBox="0 0 18 18" fill="none" xmlns="http://www.w3.org/2000/svg">
<path d="M18 5.5V14.75C18 16.5449 16.5449 18 14.75 18H3.25C1.45507 18 0 16.5449 0 14.75V5.5H18ZM4.25 12C3.55964 12 3 12.5596 3 13.25C3 13.9404 3.55964 14.5 4.25 14.5C4.94036 14.5 5.5 13.9404 5.5 13.25C5.5 12.5596 4.94036 12 4.25 12ZM9 12C8.3096 12 7.75 12.5596 7.75 13.25C7.75 13.9404 8.3096 14.5 9 14.5C9.6904 14.5 10.25 13.9404 10.25 13.25C10.25 12.5596 9.6904 12 9 12ZM4.25 7.5C3.55964 7.5 3 8.0596 3 8.75C3 9.4404 3.55964 10 4.25 10C4.94036 10 5.5 9.4404 5.5 8.75C5.5 8.0596 4.94036 7.5 4.25 7.5ZM9 7.5C8.3096 7.5 7.75 8.0596 7.75 8.75C7.75 9.4404 8.3096 10 9 10C9.6904 10 10.25 9.4404 10.25 8.75C10.25 8.0596 9.6904 7.5 9 7.5ZM13.75 7.5C13.0596 7.5 12.5 8.0596 12.5 8.75C12.5 9.4404 13.0596 10 13.75 10C14.4404 10 15 9.4404 15 8.75C15 8.0596 14.4404 7.5 13.75 7.5ZM14.75 0C16.5449 0 18 1.45507 18 3.25V4H0V3.25C0 1.45507 1.45507 0 3.25 0H14.75Z" fill="#212121"/>
</svg>
