<svg width="20" height="21" viewBox="0 0 20 21" fill="none" xmlns="http://www.w3.org/2000/svg">
<path d="M8 3.5H12C12 2.39543 11.1046 1.5 10 1.5C8.8954 1.5 8 2.39543 8 3.5ZM6.5 3.5C6.5 1.567 8.067 0 10 0C11.933 0 13.5 1.567 13.5 3.5H19.25C19.6642 3.5 20 3.83579 20 4.25C20 4.66421 19.6642 5 19.25 5H17.9309L16.7589 17.1112C16.5729 19.0334 14.9575 20.5 13.0263 20.5H6.97369C5.04254 20.5 3.42715 19.0334 3.24113 17.1112L2.06908 5H0.75C0.33579 5 0 4.66421 0 4.25C0 3.83579 0.33579 3.5 0.75 3.5H6.5ZM8.5 8.25C8.5 7.83579 8.1642 7.5 7.75 7.5C7.33579 7.5 7 7.83579 7 8.25V15.75C7 16.1642 7.33579 16.5 7.75 16.5C8.1642 16.5 8.5 16.1642 8.5 15.75V8.25ZM12.25 7.5C11.8358 7.5 11.5 7.83579 11.5 8.25V15.75C11.5 16.1642 11.8358 16.5 12.25 16.5C12.6642 16.5 13 16.1642 13 15.75V8.25C13 7.83579 12.6642 7.5 12.25 7.5Z" fill="#C70000"/>
</svg>
