<svg width="18" height="18" viewBox="0 0 18 18" fill="none" xmlns="http://www.w3.org/2000/svg">
<path d="M14.75 0C16.5449 0 18 1.45507 18 3.25V14.75C18 16.5449 16.5449 18 14.75 18H3.25C1.45507 18 0 16.5449 0 14.75V3.25C0 1.45507 1.45507 0 3.25 0H14.75ZM14.75 1.5H3.25C2.2835 1.5 1.5 2.2835 1.5 3.25V10H6C6.3797 10 6.69349 10.2822 6.74315 10.6482L6.75 10.75C6.75 11.9926 7.7574 13 9 13C10.2426 13 11.25 11.9926 11.25 10.75C11.25 10.3358 11.5858 10 12 10H16.5V3.25C16.5 2.33183 15.7929 1.57881 14.8935 1.5058L14.75 1.5Z" fill="#212121"/>
</svg>
