<svg width="20" height="17" viewBox="0 0 20 17" fill="none" xmlns="http://www.w3.org/2000/svg">
<path d="M4.70711 0.29289C4.31658 -0.09763 3.68342 -0.09763 3.29289 0.29289L2 1.58579L1.70711 1.29289C1.31658 0.90237 0.68342 0.90237 0.29289 1.29289C-0.09763 1.68342 -0.09763 2.31658 0.29289 2.70711L1.29289 3.70711C1.68342 4.09763 2.31658 4.09763 2.70711 3.70711L4.70711 1.70711C5.09763 1.31658 5.09763 0.68342 4.70711 0.29289ZM19.0034 13.9933H7.99951L7.88289 14C7.38555 14.0578 6.99951 14.4805 6.99951 14.9933C6.99951 15.5456 7.44723 15.9933 7.99951 15.9933H19.0034L19.1201 15.9866C19.6174 15.9288 20.0034 15.5061 20.0034 14.9933C20.0034 14.441 19.5557 13.9933 19.0034 13.9933ZM19.0034 8H7.99951L7.88289 8.0067C7.38555 8.0645 6.99951 8.4872 6.99951 9C6.99951 9.5523 7.44723 10 7.99951 10H19.0034L19.1201 9.9933C19.6174 9.9355 20.0034 9.5128 20.0034 9C20.0034 8.4477 19.5557 8 19.0034 8ZM19.0034 2.00004H7.99951L7.88289 2.00677C7.38555 2.06453 6.99951 2.4872 6.99951 3.00004C6.99951 3.55232 7.44723 4.00004 7.99951 4.00004H19.0034L19.1201 3.99331C19.6174 3.93555 20.0034 3.51287 20.0034 3.00004C20.0034 2.44775 19.5557 2.00004 19.0034 2.00004ZM4.70711 13.2929C4.31658 12.9024 3.68342 12.9024 3.29289 13.2929L2 14.5858L1.70711 14.2929C1.31658 13.9024 0.68342 13.9024 0.29289 14.2929C-0.09763 14.6834 -0.09763 15.3166 0.29289 15.7071L1.29289 16.7071C1.68342 17.0976 2.31658 17.0976 2.70711 16.7071L4.70711 14.7071C5.09763 14.3166 5.09763 13.6834 4.70711 13.2929ZM3.29289 6.79289C3.68342 6.40237 4.31658 6.40237 4.70711 6.79289C5.09763 7.1834 5.09763 7.8166 4.70711 8.2071L2.70711 10.2071C2.31658 10.5976 1.68342 10.5976 1.29289 10.2071L0.29289 9.2071C-0.09763 8.8166 -0.09763 8.1834 0.29289 7.7929C0.68342 7.4024 1.31658 7.4024 1.70711 7.7929L2 8.0858L3.29289 6.79289Z" fill="#212121"/>
</svg>
